<?xml version="1.0" standalone="no"?>
<!DOCTYPE svg PUBLIC "-//W3C//DTD SVG 20010904//EN"
 "http://www.w3.org/TR/2001/REC-SVG-20010904/DTD/svg10.dtd">
<svg version="1.0" xmlns="http://www.w3.org/2000/svg"
 width="700.000000pt" height="700.000000pt" viewBox="0 0 700.000000 700.000000"
 preserveAspectRatio="xMidYMid meet">
<metadata>
Created by potrace 1.14, written by Peter Selinger 2001-2017
</metadata>
<g transform="translate(0.000000,700.000000) scale(0.100000,-0.100000)"
fill="#000000" stroke="none">
<path d="M3318 6955 c-2 -1 -47 -6 -100 -9 -53 -4 -107 -9 -120 -11 -12 -3
-48 -7 -79 -10 -48 -5 -95 -13 -289 -51 -14 -3 -43 -10 -65 -16 -22 -5 -49
-12 -59 -14 -29 -5 -268 -81 -306 -97 -14 -6 -27 -11 -30 -12 -85 -29 -188
-75 -356 -160 -160 -81 -191 -100 -374 -222 -345 -229 -676 -564 -924 -932
-265 -395 -455 -866 -531 -1321 -3 -19 -8 -42 -10 -50 -2 -8 -7 -44 -10 -80
-4 -36 -8 -67 -10 -70 -9 -15 -20 -237 -20 -405 1 -170 7 -291 20 -395 3 -19
7 -57 10 -85 17 -152 121 -572 170 -690 7 -16 30 -73 50 -125 50 -127 167
-361 245 -490 35 -58 66 -107 69 -110 4 -3 19 -25 35 -50 160 -249 451 -559
730 -779 84 -66 328 -231 411 -277 135 -75 299 -154 430 -207 107 -44 361
-126 438 -142 10 -2 26 -6 35 -9 9 -3 28 -7 42 -10 14 -2 45 -9 70 -15 25 -5
74 -15 110 -20 36 -6 79 -14 95 -17 17 -3 46 -7 65 -9 19 -1 69 -6 110 -11
148 -16 624 -10 740 11 14 2 59 9 100 14 115 17 239 41 333 66 9 3 27 7 39 10
35 7 280 86 313 100 17 7 73 29 125 50 231 92 588 298 774 447 497 398 834
829 1069 1368 92 212 190 524 222 705 6 33 21 128 31 189 3 21 7 46 9 55 19
102 27 574 12 726 -5 44 -10 101 -12 127 -3 26 -7 59 -10 75 -3 15 -8 44 -11
63 -52 322 -154 644 -293 930 -50 105 -117 231 -149 282 -9 15 -35 55 -56 90
-46 74 -189 269 -255 348 -341 409 -805 758 -1266 954 -49 21 -103 44 -120 52
-143 63 -481 158 -675 189 -19 3 -46 7 -60 10 -53 10 -125 19 -250 31 -61 6
-457 13 -462 9z"/>
</g>
</svg>
