<?xml version="1.0" encoding="UTF-8"?>
<!DOCTYPE svg PUBLIC "-//W3C//DTD SVG 1.1//EN" "http://www.w3.org/Graphics/SVG/1.1/DTD/svg11.dtd">
<!-- Creator: CorelDRAW 2020 (64-Bit) -->
<svg xmlns="http://www.w3.org/2000/svg" xml:space="preserve" width="83mm" height="83mm" version="1.1" style="shape-rendering:geometricPrecision; text-rendering:geometricPrecision; image-rendering:optimizeQuality; fill-rule:evenodd; clip-rule:evenodd"
viewBox="0 0 8300 8300"
 xmlns:xlink="http://www.w3.org/1999/xlink"
 xmlns:xodm="http://www.corel.com/coreldraw/odm/2003">
 <defs>
  <style type="text/css">
   <![CDATA[
    .str1 {stroke:#FBD78B;stroke-width:50;stroke-miterlimit:22.9256}
    .str0 {stroke:#2B2A29;stroke-width:20;stroke-miterlimit:22.9256}
    .fil1 {fill:none}
    .fil5 {fill:black}
    .fil0 {fill:#39325C}
    .fil2 {fill:#B7455C}
    .fil4 {fill:#D8A1A4}
    .fil3 {fill:#FBD78B}
   ]]>
  </style>
 </defs>
 <g id="Слой_x0020_1">
  <metadata id="CorelCorpID_0Corel-Layer"/>
  <g id="_1783256382912">
   <path class="fil0" d="M5318.68 1264.74c27.79,-28.88 -1083.71,-1195.43 -1192.64,-1189.01 -3769.31,222.23 -4095.41,3671.52 -4069.3,3645.96l1164.26 -1140 1064.78 1030.59c277.86,-744.76 797.8,-1369.11 2044.03,-1320.11l988.87 -1027.43z"/>
   <circle class="fil1 str0" cx="4164.75" cy="4193.67" r="1651.01"/>
   <path class="fil2" d="M7130.73 5248.72c29.78,26.78 1075.98,-944.77 1071.18,-1053.74 -168.56,-3823.23 -3636.84,-4103.11 -3611.36,-4076.96l1123.58 1153.57 -1023.41 1061.71c753.66,252.72 1297.21,730.26 1380,1961.56l1060.01 953.86z"/>
   <path class="fil3" d="M2900.65 7085.02c-28.25,28.25 1057.6,1174.47 1166.67,1173.04 3651.78,-48.16 4164.13,-3450.42 4092.31,-3549.48 -6.5,-8.98 -1050.18,1001.94 -1149.73,1097.67l-1034.24 -1048.01c-299.49,736.33 -840.08,1421.96 -2084.34,1336.59l-990.67 990.19z"/>
   <path class="fil4" d="M1245.04 3016.61c-27.26,-26.66 -1100.25,921.83 -1200.18,1106.97l0 185.2c213.36,3628.48 3644.8,3974.84 3619.41,3949.35l-1163.83 -1167.95 1038.98 -1066.52c-742.54,-283.74 -1376.53,-806.19 -1317.68,-2051.99l-976.7 -955.06z"/>
  </g>
  <g id="_1783256380800">
   <path class="fil4" d="M6213.81 2818.62l0 -43.66c0,-95.89 78.46,-174.35 174.36,-174.35l414.69 0c17.54,0 26.49,-19.81 28.42,-35.37 -3.39,-21.67 -13.4,-25.29 -28.37,-31.95l-256.11 0.17 0 -115.84c0,-47.45 63.24,-149.48 159.39,-149.48 244.07,0 341.56,-26.8 341.56,264.98l0 220.93c0,35.52 -29.06,64.57 -64.57,64.57l-149.69 0 -2.21 0 -254.25 0c-60.73,24.88 -72.96,39.64 -98.41,97.77l0 185.17 -93.68 0c-94.12,0 -171.13,-77 -171.13,-171.12l0 -111.82zm504.36 -445.59c18.68,0 33.83,15.14 33.83,33.83 0,18.68 -15.15,33.83 -33.83,33.83 -18.69,0 -33.83,-15.15 -33.83,-33.83 0,-18.69 15.14,-33.83 33.83,-33.83z"/>
   <path class="fil4" d="M7381.27 2857.31l0 43.66c0,95.89 -78.46,174.35 -174.36,174.35l-414.69 0c-17.54,0 -26.49,19.81 -28.42,35.37 3.39,21.67 13.4,25.29 28.37,31.95l256.11 -0.17 0 115.84c0,47.45 -63.24,149.48 -159.39,149.48 -244.07,0 -341.56,26.8 -341.56,-264.98l0 -220.93c0,-35.52 29.06,-64.57 64.57,-64.57l149.69 0 2.21 0 254.25 0c60.73,-24.88 72.96,-39.64 98.41,-97.77l0 -185.17 93.68 0c94.12,0 171.13,77 171.13,171.12l0 111.82zm-504.36 445.59c-18.68,0 -33.83,-15.14 -33.83,-33.83 0,-18.68 15.15,-33.82 33.83,-33.82 18.69,0 33.83,15.14 33.83,33.82 0,18.69 -15.14,33.83 -33.83,33.83z"/>
  </g>
  <g id="_1783256380656">
   <path class="fil2" d="M5242.07 6474.55c133.98,0 252.04,68.12 321.46,171.61l-95.59 66.92c-48.3,-73.42 -131.42,-121.9 -225.87,-121.9 -149.23,0 -270.2,120.97 -270.2,270.2 0,149.23 120.97,270.2 270.2,270.2 88.61,0 167.26,-42.66 216.53,-108.56l95.57 66.9c-70.39,95.97 -183.96,158.3 -312.1,158.3 -213.65,0 -386.84,-173.2 -386.84,-386.84 0,-213.64 173.19,-386.83 386.84,-386.83z"/>
   <path class="fil2" d="M5681.39 6639.78l93.3 0 0 81.64 81.64 0 0 -81.64 93.31 0 0 81.64 77.76 0 0 93.31 -77.76 0 0 93.3 77.76 0 0 93.31 -77.76 0 0 73.87 -93.31 0 0 -73.87 -81.64 0 0 73.87 -93.3 0 0 -73.87 -89.42 0 0 -93.31 89.42 0 0 -93.3 -89.42 0 0 -93.31 89.42 0 0 -81.64zm174.94 268.25l0 -93.3 -81.64 0 0 93.3 81.64 0z"/>
  </g>
  <g id="_1783256383344">
   <g>
    <polygon class="fil3" points="2603.74,1197.94 2693.77,1197.94 2693.77,1819.31 2693.77,1919.2 2455.22,1874.64 2442.61,1707.37 2527.57,1707.37 2534.28,1789.06 2603.74,1802.23 "/>
    <polygon class="fil3" points="3082.66,1208.19 2785.55,1208.19 2785.55,1297.23 2785.55,1523.31 2785.55,1614.34 2877.58,1614.34 2959.88,1614.34 2942,1797.68 2785.55,1827.38 2785.55,1918.41 3022.5,1873.43 3026.64,1873.43 3056.65,1523.31 2877.58,1523.31 2877.58,1297.23 3082.66,1297.23 "/>
   </g>
   <polygon class="fil1 str1" points="2239.21,1022.48 3331.9,1022.48 3239.44,2025.04 2785.55,2115.17 2331.24,2025.04 "/>
  </g>
  <rect class="fil0" transform="matrix(0.924553 0.183203 -0.183203 0.924553 1415.59 4854.98)" width="248.7" height="1280.59" rx="5000" ry="5000"/>
  <path class="fil0" d="M1806.25 4961.6l0 0c54.19,0 76.85,48.84 98.51,98.5l178.15 408.64 -178.15 408.77c-21.64,49.66 -44.32,98.51 -98.51,98.51l0 0c-54.18,0 -120.2,-48.85 -98.5,-98.51l178.15 -407.72 -178.15 -409.69c-21.6,-49.69 44.32,-98.5 98.5,-98.5z"/>
  <path class="fil0" d="M1013.63 4944.83l0 0c-54.18,0 -76.85,48.84 -98.51,98.5l-178.15 408.64 178.15 408.77c21.65,49.66 44.33,98.51 98.51,98.51l0 0c54.18,0 120.2,-48.85 98.5,-98.51l-178.15 -407.72 178.15 -409.69c21.6,-49.69 -44.32,-98.5 -98.5,-98.5z"/>
  <g id="_1783256381328">
   <g>
    <path class="fil5" d="M3723.37 3604.48c-24.58,0.88 -43.01,5.92 -55.73,14.48 -7.24,4.83 -12.51,10.97 -16.02,18.43 -3.73,8.12 -5.48,18.21 -5.27,29.62 0.88,33.58 18.65,77.46 52.66,127.93l0.44 0.65 110.37 175.54c44.32,70.43 90.62,142.18 148.33,194.84 55.51,50.69 122.65,84.92 211.74,85.14 96.32,0.22 166.75,-35.33 224.02,-88.87 59.46,-55.73 106.42,-132.09 152.72,-208.23l124.41 -204.71c23.25,-52.88 31.59,-88.21 26.33,-109.05 -3.08,-12.29 -16.68,-18.44 -39.94,-19.53 -4.83,-0.22 -10.09,-0.22 -15.14,-0.22 -5.48,0.22 -11.41,0.44 -17.33,1.09 -3.29,0.22 -6.59,0 -9.66,-0.65 -10.97,0.65 -22.38,-0.22 -34.01,-1.76l42.57 -188.48c-315.96,49.81 -552.28,-184.75 -886.23,-46.95l24.14 222.05c-14.04,0.87 -26.77,0.44 -38.4,-1.32l0 0 0 0 0 0zm807.9 1487l0 105.98 -217.88 123.53 0 -123.53 140.2 -53.32 -140.2 -52.66 0 -123.54 217.88 123.54 0 0zm-377.4 264.4l-92.82 0 114.54 -446.3 92.82 0 -114.54 446.3 0 0zm-154.91 -264.4l-140.21 52.66 140.21 53.32 0 123.53 -217.88 -123.53 0 -105.98 217.88 -123.54 0 123.54 0 0zm700.38 -1526.71l0 0 0 0c4.61,-192.43 39.94,-386.84 -96.98,-544.6 -97.64,-112.56 -351.73,-218.54 -516.51,-227.54 -69.56,-3.73 -43.01,52.88 -111.68,76.58 -141.75,48.93 -265.72,152.93 -306.31,297.31 -6.59,23.7 -11.19,47.62 -13.61,71.53 -4.6,100.49 -1.97,220.3 5.27,315.52 -9.87,3.73 -18.87,8.34 -26.77,13.61 -17.11,11.41 -29.62,26.33 -37.96,44.1 -7.9,16.9 -11.41,36.21 -10.75,57.49 1.31,45.2 22.16,100.05 62.53,160.39l110.37 175.54c38.62,61.44 78.99,123.97 128.14,176.85 -2.41,7.02 0.22,-0.66 -1.32,3.95 -13.6,41.25 -36.42,110.15 -56.82,148.76 -134.07,87.77 -441.03,110.37 -560.18,176.86 -325.18,181.24 -207.79,554.9 -211.74,863.63 6.37,68.89 45.42,108.39 122.22,114.31l83.16 0 -91.06 -691.16c-7.02,-53.76 31.16,-97.86 78.11,-97.86l427.21 0 504.22 0c-17.33,-111.91 -306.74,-219.86 -317.06,-304.12 2.86,-1.97 5.49,-4.61 7.68,-7.68 24.58,-34.23 50.03,-105.54 67.58,-157.54 62.1,50.25 136.7,83.16 232.59,83.38 86.01,0.22 154.69,-23.7 212.39,-62.54 5.71,8.12 11.41,16.68 17.56,25.68 27.42,40.37 59.46,87.11 89.3,120.46 -6.36,95.88 -257.38,96.98 -285.9,302.35l893.91 0.01c46.95,0 85.35,44.1 78.11,97.86l-91.06 691.16 83.16 0c76.8,-5.92 115.85,-45.42 122.44,-114.31 -21.73,-291.61 87.54,-696.88 -211.74,-863.63 -117.61,-65.61 -418.21,-88.43 -554.91,-173.34 -23.04,-28.53 -47.83,-64.95 -69.77,-96.99 -7.03,-10.53 -13.83,-20.4 -20.19,-29.4l3.29 -2.85c65.61,-61.44 114.98,-141.53 163.47,-221.39l125.72 -207.14c0.66,-1.09 1.32,-2.41 1.98,-3.51l0 0c29.4,-66.92 39.06,-116.07 30.28,-150.74 -8.12,-32.25 -27.65,-51.56 -58.37,-60.99l0 0z"/>
   </g>
  </g>
 </g>
</svg>
